<svg width="129" height="24" viewBox="0 0 129 24" fill="none" xmlns="http://www.w3.org/2000/svg">
<path d="M41.219 20.9157C39.3656 20.9157 37.7273 20.5517 36.3039 19.8233C34.8804 19.0785 33.78 18.0278 33.0022 16.6706C32.2244 15.3136 31.8355 13.7165 31.8355 11.8795C31.8355 10.0425 32.2244 8.44548 33.0022 7.08843C33.78 5.71478 34.8804 4.66391 36.3039 3.93572C37.7273 3.19099 39.3656 2.8186 41.219 2.8186C42.4768 2.8186 43.5857 2.95102 44.5455 3.21582C45.5221 3.46406 46.4157 3.86124 47.2264 4.40739V8.00692C46.4984 7.41112 45.6628 6.98084 44.7194 6.71604C43.7926 6.43469 42.7335 6.29404 41.5419 6.29404C40.4331 6.29404 39.4315 6.52573 38.538 6.98912C37.661 7.43595 36.9659 8.08137 36.4529 8.92542C35.9399 9.76943 35.6831 10.7541 35.6831 11.8795C35.6831 13.0215 35.9149 14.0227 36.3782 14.8833C36.8583 15.7273 37.5284 16.381 38.389 16.8444C39.2495 17.3078 40.2427 17.5395 41.368 17.5395C42.3941 17.5395 43.2876 17.3574 44.0489 16.9933V13.642H41.2439V10.8617H47.6981V19.2275C46.0597 20.3528 43.9003 20.9157 41.219 20.9157Z" fill="white"/>
<path d="M48.5618 8.63402H52.1861V10.3469C52.6662 9.76769 53.3363 9.3291 54.1969 9.03123C55.0575 8.71678 56.0341 8.55957 57.1261 8.55957V11.4144C55.9843 11.4144 54.9747 11.5881 54.0977 11.9357C53.2371 12.2832 52.6413 12.8128 52.3102 13.5244V20.5498H48.5618V8.63402Z" fill="white"/>
<path d="M64.3424 20.9198C62.0585 20.9198 60.2626 20.3734 58.9553 19.2814C57.648 18.1726 56.9943 16.6251 56.9943 14.6391C56.9943 12.6697 57.5736 11.1141 58.7319 9.97216C59.9071 8.83021 61.5784 8.25928 63.7466 8.25928C65.1697 8.25928 66.3778 8.52407 67.3709 9.05363C68.3637 9.58323 69.1169 10.3197 69.63 11.263C70.143 12.1898 70.3993 13.2407 70.3993 14.4157V15.93H60.5691C60.8339 17.4526 62.2569 18.214 64.8386 18.214C65.6 18.214 66.3862 18.1477 67.197 18.0151C68.0081 17.8829 68.7115 17.7008 69.3073 17.4691V20.1006C68.728 20.3489 67.9832 20.5474 67.0728 20.6964C66.1628 20.8451 65.2524 20.9198 64.3424 20.9198ZM66.8494 13.4972C66.8 12.7028 66.5019 12.0905 65.9559 11.6602C65.4099 11.2134 64.6566 10.9899 63.6968 10.9899C62.7535 10.9899 62.0087 11.2134 61.4627 11.6602C60.9167 12.1071 60.6186 12.7194 60.5691 13.4972H66.8494Z" fill="white"/>
<path d="M78.077 20.9198C75.7934 20.9198 73.9975 20.3734 72.6902 19.2814C71.3829 18.1726 70.7289 16.6251 70.7289 14.6391C70.7289 12.6697 71.3082 11.1141 72.4668 9.97216C73.6416 8.83021 75.3133 8.25928 77.4812 8.25928C78.9046 8.25928 80.1127 8.52407 81.1058 9.05363C82.0986 9.58323 82.8515 10.3197 83.3645 11.263C83.8776 12.1898 84.1343 13.2407 84.1343 14.4157V15.93H74.3037C74.5684 17.4526 75.9919 18.214 78.5735 18.214C79.3349 18.214 80.1211 18.1477 80.9319 18.0151C81.7426 17.8829 82.4461 17.7008 83.0419 17.4691V20.1006C82.4626 20.3489 81.7181 20.5474 80.8077 20.6964C79.8974 20.8451 78.9874 20.9198 78.077 20.9198ZM80.5843 13.4972C80.5345 12.7028 80.2368 12.0905 79.6908 11.6602C79.1444 11.2134 78.3915 10.9899 77.4317 10.9899C76.4884 10.9899 75.7436 11.2134 75.1976 11.6602C74.6512 12.1071 74.3535 12.7194 74.3037 13.4972H80.5843Z" fill="white"/>
<path d="M84.9601 8.63163H88.5844V10.0963C89.1307 9.48395 89.776 9.02884 90.5208 8.73094C91.2821 8.41649 92.0764 8.25928 92.904 8.25928C94.5259 8.25928 95.734 8.69783 96.5283 9.57495C97.339 10.4356 97.7448 11.6023 97.7448 13.0752V20.5474H93.996V13.4972C93.996 11.9581 93.2845 11.1886 91.8611 11.1886C91.2323 11.1886 90.645 11.3458 90.0986 11.6602C89.5526 11.9581 89.0893 12.405 88.7085 13.0007V20.5474H84.9601V8.63163Z" fill="white"/>
<path d="M101.055 6.79388C100.476 6.79388 99.9881 6.60357 99.5908 6.22291C99.1935 5.84228 98.995 5.36234 98.995 4.78309C98.995 4.22043 99.1935 3.74877 99.5908 3.36811C99.9881 2.97093 100.476 2.77234 101.055 2.77234C101.635 2.77234 102.123 2.97093 102.52 3.36811C102.917 3.74877 103.116 4.22043 103.116 4.78309C103.116 5.36234 102.917 5.84228 102.52 6.22291C102.123 6.60357 101.635 6.79388 101.055 6.79388ZM99.1686 8.63088H102.942V20.5466H99.1686V8.63088Z" fill="white"/>
<path d="M109.349 20.9198C108.455 20.9198 107.495 20.8205 106.469 20.6217C105.46 20.4397 104.666 20.1749 104.086 19.8274V16.8982C104.748 17.2953 105.543 17.6181 106.469 17.8663C107.396 18.1147 108.257 18.2389 109.051 18.2389C109.73 18.2389 110.226 18.1806 110.54 18.0649C110.855 17.949 111.012 17.7339 111.012 17.4195C111.012 17.1712 110.921 16.9727 110.739 16.8237C110.557 16.6582 110.276 16.5175 109.895 16.4017C109.531 16.2693 108.919 16.0789 108.058 15.8307C107.049 15.5328 106.254 15.2349 105.675 14.937C105.112 14.6226 104.682 14.2337 104.384 13.7703C104.103 13.3069 103.962 12.7111 103.962 11.9829C103.962 10.7417 104.45 9.81492 105.427 9.2026C106.42 8.57369 107.76 8.25928 109.448 8.25928C110.276 8.25928 111.128 8.35028 112.005 8.53235C112.899 8.69783 113.586 8.92125 114.066 9.2026V12.0574C113.586 11.7429 112.957 11.4864 112.179 11.2878C111.418 11.0893 110.673 10.9899 109.945 10.9899C109.266 10.9899 108.737 11.0561 108.356 11.1886C107.992 11.3209 107.81 11.5692 107.81 11.9333C107.81 12.2477 107.984 12.4877 108.331 12.6532C108.695 12.8187 109.366 13.0256 110.342 13.2738L110.839 13.3979C111.881 13.6793 112.692 13.9937 113.271 14.3412C113.85 14.6722 114.256 15.0777 114.488 15.5576C114.736 16.021 114.86 16.6085 114.86 17.3202C114.86 18.4124 114.388 19.2895 113.445 19.9516C112.502 20.5972 111.136 20.9198 109.349 20.9198Z" fill="white"/>
<path d="M115.71 2.2063H119.458V10.0012C120.021 9.42193 120.658 8.99164 121.37 8.71029C122.081 8.41239 122.843 8.26346 123.654 8.26346C125.276 8.26346 126.484 8.70202 127.278 9.57913C128.089 10.4397 128.494 11.6065 128.494 13.0794V20.5515H124.746V13.5014C124.746 11.9623 124.034 11.1927 122.611 11.1927C121.982 11.1927 121.395 11.35 120.849 11.6644C120.302 11.9623 119.839 12.4091 119.458 13.0049V20.5515H115.71V2.2063Z" fill="white"/>
<path fill-rule="evenodd" clip-rule="evenodd" d="M19.0319 5.7096C19.0319 8.86293 16.4758 11.4192 13.3225 11.4192C10.1692 11.4192 7.61288 8.86293 7.61288 5.7096C7.61288 2.55628 10.1692 0 13.3225 0C16.4758 0 19.0319 2.55628 19.0319 5.7096ZM0.0414911 11.0043C6.26198 10.585 11.6833 15.2422 12.1883 21.4759C12.2406 22.1218 12.2381 22.7598 12.1847 23.3845C5.96419 23.8038 0.542852 19.1465 0.0378661 12.9129C-0.0144269 12.267 -0.0119371 11.6292 0.0414911 11.0043ZM16.2094 23.1662C22.4431 22.6612 27.1004 17.24 26.6811 11.0195C26.056 10.9661 25.4184 10.9636 24.7725 11.016C18.5387 11.5209 13.8815 16.9422 14.3008 23.1626C14.9257 23.216 15.5635 23.2186 16.2094 23.1662Z" fill="white"/>
</svg>
