<svg width="44" height="44" viewBox="0 0 44 44" fill="none" xmlns="http://www.w3.org/2000/svg">
<g clip-path="url(#clip0_1_15628)">
<path d="M40.6114 18.3112C40.5734 18.1189 40.4944 17.9371 40.3798 17.778C40.2653 17.619 40.1178 17.4864 39.9474 17.3894L34.8553 14.4875L34.8349 8.74846C34.8342 8.55081 34.7907 8.35565 34.7073 8.17646C34.6239 7.99726 34.5026 7.83831 34.3518 7.71058C32.5046 6.14813 30.3775 4.95077 28.0835 4.18215C27.9029 4.121 27.7114 4.09837 27.5215 4.11572C27.3316 4.13307 27.1474 4.19 26.9808 4.28286L21.8443 7.15409L16.7028 4.27774C16.5361 4.18436 16.3516 4.12699 16.1614 4.10935C15.9712 4.09171 15.7793 4.11418 15.5983 4.17532C13.3057 4.94887 11.1809 6.15088 9.33692 7.71741C9.18631 7.84495 9.06513 8.00363 8.98173 8.18251C8.89833 8.36139 8.8547 8.55622 8.85383 8.75358L8.82822 14.4977L3.73615 17.3997C3.56579 17.4967 3.41831 17.6292 3.30373 17.7883C3.18915 17.9473 3.11015 18.1292 3.07211 18.3215C2.60609 20.6633 2.60609 23.0741 3.07211 25.4159C3.11015 25.6082 3.18915 25.7901 3.30373 25.9491C3.41831 26.1082 3.56579 26.2407 3.73615 26.3377L8.82822 29.2397L8.84871 34.9804C8.84933 35.1781 8.89284 35.3732 8.97625 35.5524C9.05966 35.7316 9.18097 35.8905 9.3318 36.0183C11.1789 37.5807 13.306 38.7781 15.6 39.5467C15.7807 39.6079 15.9721 39.6305 16.1621 39.6131C16.352 39.5958 16.5362 39.5389 16.7028 39.446L21.8443 36.5662L26.9859 39.4426C27.1894 39.556 27.4187 39.6148 27.6517 39.6133C27.8008 39.6132 27.949 39.589 28.0904 39.5416C30.3824 38.7684 32.507 37.5676 34.3518 36.0029C34.5024 35.8754 34.6236 35.7167 34.707 35.5378C34.7904 35.3589 34.834 35.1641 34.8349 34.9667L34.8605 29.2226L39.9525 26.3206C40.1229 26.2237 40.2704 26.0911 40.385 25.9321C40.4995 25.773 40.5785 25.5911 40.6166 25.3988C41.08 23.0589 41.0783 20.6505 40.6114 18.3112ZM21.8443 28.6883C20.4939 28.6883 19.1737 28.2878 18.0508 27.5375C16.928 26.7873 16.0528 25.7209 15.536 24.4732C15.0192 23.2255 14.8839 21.8526 15.1474 20.5281C15.4109 19.2035 16.0612 17.9869 17.0161 17.0319C17.9711 16.077 19.1877 15.4267 20.5122 15.1632C21.8368 14.8998 23.2097 15.035 24.4573 15.5518C25.705 16.0686 26.7714 16.9438 27.5217 18.0667C28.272 19.1895 28.6725 20.5097 28.6725 21.8602C28.6725 23.6711 27.9531 25.4079 26.6726 26.6884C25.392 27.9689 23.6553 28.6883 21.8443 28.6883Z" fill="#FF4C00"/>
</g>
<defs>
<clipPath id="clip0_1_15628">
<rect width="43.7" height="43.7" fill="white"/>
</clipPath>
</defs>
</svg>
