<svg width="19" height="19" viewBox="0 0 19 19" fill="none" xmlns="http://www.w3.org/2000/svg">
<g clip-path="url(#clip0_1_15680)">
<path d="M9.36326 1.75635C7.85845 1.75635 6.38742 2.20258 5.13622 3.03861C3.88501 3.87464 2.90981 5.06292 2.33394 6.45319C1.75807 7.84346 1.6074 9.37327 1.90097 10.8492C2.19455 12.3251 2.91919 13.6808 3.98325 14.7448C5.04732 15.8089 6.40302 16.5335 7.87892 16.8271C9.35482 17.1207 10.8846 16.97 12.2749 16.3942C13.6652 15.8183 14.8535 14.8431 15.6895 13.5919C16.5255 12.3407 16.9717 10.8696 16.9717 9.36483C16.9696 7.34759 16.1673 5.41358 14.7409 3.98717C13.3145 2.56077 11.3805 1.75848 9.36326 1.75635ZM12.7037 8.0231L8.6068 12.12C8.55245 12.1744 8.4879 12.2176 8.41685 12.247C8.3458 12.2765 8.26964 12.2916 8.19273 12.2916C8.11581 12.2916 8.03965 12.2765 7.9686 12.247C7.89755 12.2176 7.833 12.1744 7.77865 12.12L6.02285 10.3642C5.91303 10.2544 5.85133 10.1054 5.85133 9.9501C5.85133 9.79479 5.91303 9.64584 6.02285 9.53602C6.13267 9.4262 6.28161 9.3645 6.43692 9.3645C6.59223 9.3645 6.74118 9.4262 6.851 9.53602L8.19273 10.8785L11.8755 7.19495C11.9299 7.14057 11.9945 7.09744 12.0655 7.06801C12.1366 7.03858 12.2127 7.02343 12.2896 7.02343C12.3665 7.02343 12.4427 7.03858 12.5137 7.06801C12.5847 7.09744 12.6493 7.14057 12.7037 7.19495C12.7581 7.24933 12.8012 7.31388 12.8306 7.38493C12.86 7.45598 12.8752 7.53213 12.8752 7.60903C12.8752 7.68593 12.86 7.76208 12.8306 7.83312C12.8012 7.90417 12.7581 7.96873 12.7037 8.0231Z" fill="white"/>
</g>
<defs>
<clipPath id="clip0_1_15680">
<rect width="18.7286" height="18.7286" fill="white"/>
</clipPath>
</defs>
</svg>
