<svg width="18" height="16" viewBox="0 0 18 16" fill="none" xmlns="http://www.w3.org/2000/svg">
<path d="M0.186584 2.72668C-0.154073 2.44251 0.415737 2.08207 0.871987 2.29312L6.60795 4.94645C6.90611 5.08442 7.33126 4.974 7.38654 4.74426L8.4651 0.262453C8.54933 -0.0874844 9.3539 -0.0874842 9.43805 0.262453L10.5166 4.74426C10.5719 4.974 10.997 5.08442 11.2952 4.94645L17.1333 2.24592C17.5869 2.03606 18.1556 2.39177 17.8219 2.6767L12.0566 7.60028C11.9296 7.7086 11.9293 7.85604 12.0557 7.96461L17.8489 12.9432C18.1806 13.2283 17.6123 13.5828 17.1593 13.3733L11.2952 10.6607C10.997 10.5227 10.5719 10.6331 10.5166 10.8629L9.43805 15.3447C9.3539 15.6946 8.54933 15.6946 8.4651 15.3447L7.38654 10.8629C7.33126 10.6331 6.90611 10.5227 6.60795 10.6607L0.788965 13.3524C0.3348 13.5625 -0.234099 13.2059 0.100895 12.9211L5.97841 7.92441C6.10744 7.8147 6.10635 7.66493 5.97575 7.55598L0.186584 2.72668Z" fill="#FF4C00"/>
</svg>
