<svg width="19" height="19" viewBox="0 0 19 19" fill="none" xmlns="http://www.w3.org/2000/svg">
<g clip-path="url(#clip0_1_15717)">
<path d="M9.36077 1.75464C7.85596 1.75464 6.38494 2.20087 5.13373 3.0369C3.88252 3.87293 2.90732 5.06121 2.33145 6.45148C1.75559 7.84175 1.60491 9.37156 1.89849 10.8475C2.19206 12.3234 2.9167 13.6791 3.98077 14.7431C5.04483 15.8072 6.40053 16.5318 7.87643 16.8254C9.35233 17.119 10.8821 16.9683 12.2724 16.3924C13.6627 15.8166 14.851 14.8414 15.687 13.5902C16.523 12.339 16.9693 10.8679 16.9693 9.36312C16.9671 7.34588 16.1648 5.41187 14.7384 3.98546C13.312 2.55906 11.378 1.75677 9.36077 1.75464ZM12.7012 8.0214L8.60432 12.1183C8.54996 12.1727 8.48541 12.2159 8.41436 12.2453C8.34331 12.2748 8.26715 12.2899 8.19024 12.2899C8.11333 12.2899 8.03717 12.2748 7.96612 12.2453C7.89507 12.2159 7.83052 12.1727 7.77616 12.1183L6.02036 10.3625C5.91054 10.2526 5.84884 10.1037 5.84884 9.94839C5.84884 9.79308 5.91054 9.64413 6.02036 9.53431C6.13018 9.42449 6.27913 9.3628 6.43444 9.3628C6.58974 9.3628 6.73869 9.42449 6.84851 9.53431L8.19024 10.8768L11.873 7.19324C11.9274 7.13886 11.992 7.09573 12.063 7.0663C12.1341 7.03687 12.2102 7.02172 12.2871 7.02172C12.364 7.02172 12.4402 7.03687 12.5112 7.0663C12.5823 7.09573 12.6468 7.13886 12.7012 7.19324C12.7556 7.24762 12.7987 7.31217 12.8281 7.38322C12.8576 7.45427 12.8727 7.53042 12.8727 7.60732C12.8727 7.68422 12.8576 7.76037 12.8281 7.83141C12.7987 7.90246 12.7556 7.96702 12.7012 8.0214Z" fill="#FF4C00"/>
</g>
<defs>
<clipPath id="clip0_1_15717">
<rect width="18.7286" height="18.7286" fill="white"/>
</clipPath>
</defs>
</svg>
