<svg width="91" height="15" viewBox="0 0 91 15" fill="none" xmlns="http://www.w3.org/2000/svg">
<g clip-path="url(#clip0_1_15587)">
<path d="M7.07852 0.477847C7.34677 -0.159283 8.26038 -0.159282 8.52862 0.477848L10.1118 4.2383C10.2249 4.5069 10.4806 4.69042 10.7741 4.71367L14.8835 5.03914C15.5797 5.09428 15.8621 5.95267 15.3316 6.40158L12.2007 9.0511C11.9771 9.24038 11.8794 9.53735 11.9477 9.82027L12.9042 13.7819C13.0663 14.4531 12.3272 14.9836 11.7311 14.624L8.21289 12.501C7.96159 12.3493 7.64555 12.3493 7.39426 12.501L3.87603 14.624C3.27993 14.9836 2.54081 14.4531 2.70287 13.7819L3.65942 9.82027C3.72775 9.53735 3.63008 9.24038 3.40646 9.0511L0.275515 6.40158C-0.254957 5.95267 0.0273655 5.09428 0.723618 5.03914L4.83303 4.71367C5.12656 4.69042 5.38224 4.5069 5.49533 4.2383L7.07852 0.477847Z" fill="#FF4C00"/>
<path d="M25.8071 0.477847C26.0753 -0.159283 26.989 -0.159282 27.2572 0.477848L28.8404 4.2383C28.9535 4.5069 29.2092 4.69042 29.5027 4.71367L33.6121 5.03914C34.3083 5.09428 34.5906 5.95267 34.0602 6.40158L30.9293 9.0511C30.7057 9.24038 30.608 9.53735 30.6763 9.82027L31.6328 13.7819C31.7949 14.4531 31.0558 14.9836 30.4597 14.624L26.9415 12.501C26.6902 12.3493 26.3741 12.3493 26.1228 12.501L22.6046 14.624C22.0085 14.9836 21.2694 14.4531 21.4314 13.7819L22.388 9.82027C22.4563 9.53735 22.3587 9.24038 22.135 9.0511L19.0041 6.40158C18.4736 5.95267 18.7559 5.09428 19.4522 5.03914L23.5616 4.71367C23.8551 4.69042 24.1108 4.5069 24.2239 4.2383L25.8071 0.477847Z" fill="#FF4C00"/>
<path d="M44.5356 0.477847C44.8039 -0.159283 45.7175 -0.159282 45.9857 0.477848L47.5689 4.2383C47.682 4.5069 47.9377 4.69042 48.2312 4.71367L52.3406 5.03914C53.0368 5.09428 53.3192 5.95267 52.7887 6.40158L49.6578 9.0511C49.4342 9.24038 49.3365 9.53735 49.4048 9.82027L50.3613 13.7819C50.5234 14.4531 49.7843 14.9836 49.1882 14.624L45.67 12.501C45.4187 12.3493 45.1026 12.3493 44.8513 12.501L41.3331 14.624C40.737 14.9836 39.9979 14.4531 40.16 13.7819L41.1165 9.82027C41.1848 9.53735 41.0872 9.24038 40.8636 9.0511L37.7326 6.40158C37.2021 5.95267 37.4845 5.09428 38.1807 5.03914L42.2901 4.71367C42.5836 4.69042 42.8393 4.5069 42.9524 4.2383L44.5356 0.477847Z" fill="#FF4C00"/>
<path d="M63.2641 0.477847C63.5324 -0.159283 64.446 -0.159282 64.7142 0.477848L66.2974 4.2383C66.4105 4.5069 66.6662 4.69042 66.9597 4.71367L71.0691 5.03914C71.7654 5.09428 72.0477 5.95267 71.5172 6.40158L68.3863 9.0511C68.1627 9.24038 68.065 9.53735 68.1333 9.82027L69.0899 13.7819C69.2519 14.4531 68.5128 14.9836 67.9167 14.624L64.3985 12.501C64.1472 12.3493 63.8312 12.3493 63.5799 12.501L60.0616 14.624C59.4655 14.9836 58.7264 14.4531 58.8885 13.7819L59.845 9.82027C59.9134 9.53735 59.8157 9.24038 59.5921 9.0511L56.4611 6.40158C55.9307 5.95267 56.213 5.09428 56.9092 5.03914L61.0186 4.71367C61.3122 4.69042 61.5679 4.5069 61.6809 4.2383L63.2641 0.477847Z" fill="#FF4C00"/>
<path d="M81.9926 0.477847C82.2609 -0.159283 83.1745 -0.159282 83.4427 0.477848L85.0259 4.2383C85.1391 4.5069 85.3948 4.69042 85.6883 4.71367L89.7976 5.03914C90.4939 5.09428 90.7762 5.95267 90.2457 6.40158L87.1148 9.0511C86.8912 9.24038 86.7935 9.53735 86.8618 9.82027L87.8184 13.7819C87.9804 14.4531 87.2413 14.9836 86.6452 14.624L83.127 12.501C82.8757 12.3493 82.5597 12.3493 82.3084 12.501L78.7901 14.624C78.1941 14.9836 77.4549 14.4531 77.617 13.7819L78.5735 9.82027C78.6419 9.53735 78.5442 9.24038 78.3206 9.0511L75.1896 6.40158C74.6592 5.95267 74.9415 5.09428 75.6377 5.03914L79.7472 4.71367C80.0407 4.69042 80.2964 4.5069 80.4095 4.2383L81.9926 0.477847Z" fill="#FF4C00"/>
</g>
<defs>
<clipPath id="clip0_1_15587">
<rect width="90.5212" height="14.7401" fill="white"/>
</clipPath>
</defs>
</svg>
